<svg width="40" height="40" viewBox="0 0 40 40" fill="none" xmlns="http://www.w3.org/2000/svg">
<rect width="40" height="40" rx="10" fill="url(#paint0_linear_2_52)"/>
<path d="M30.5 15.25H31.25C32.6525 15.25 33.353 15.25 33.875 15.5515C34.217 15.749 34.501 16.033 34.6985 16.375C35 16.897 35 17.5975 35 19C35 20.4025 35 21.103 34.6985 21.625C34.501 21.967 34.217 22.251 33.875 22.4485C33.353 22.75 32.6525 22.75 31.25 22.75H30.5M9.5 15.25H8.75C7.3475 15.25 6.647 15.25 6.125 15.5515C5.78299 15.749 5.49897 16.033 5.3015 16.375C5 16.897 5 17.5975 5 19C5 20.4025 5 21.103 5.3015 21.625C5.49897 21.967 5.78299 22.251 6.125 22.4485C6.647 22.75 7.3475 22.75 8.75 22.75H9.5M18.5 10H21.5C25.742 10 27.8645 10 29.1815 11.3185C30.5 12.6355 30.5 14.758 30.5 19C30.5 23.242 30.5 25.3645 29.1815 26.6815C27.8645 28 25.742 28 21.5 28H20C20 28 19.25 31 14 31C14 31 15.5 29.4865 15.5 27.9745C13.1705 27.904 11.78 27.6445 10.8185 26.6815C9.5 25.3645 9.5 23.242 9.5 19C9.5 14.758 9.5 12.6355 10.8185 11.3185C12.1355 10 14.258 10 18.5 10Z" stroke="white" stroke-width="3" stroke-linecap="round" stroke-linejoin="round"/>
<path d="M24 22H16M20 17H16" stroke="white" stroke-width="2" stroke-linecap="round" stroke-linejoin="round"/>
<defs>
<linearGradient id="paint0_linear_2_52" x1="20" y1="0" x2="20" y2="40" gradientUnits="userSpaceOnUse">
<stop stop-color="#8B5CF6"/>
<stop offset="1" stop-color="#703EE1"/>
</linearGradient>
</defs>
</svg>
