<svg width="100" height="100" viewBox="0 0 100 100" fill="none" xmlns="http://www.w3.org/2000/svg">
<path opacity="0.5" d="M80.2999 67.2375C86.7374 60.7958 89.9582 57.5792 91.1541 53.4C92.3541 49.2208 91.3291 44.7833 89.2791 35.9125L88.0999 30.7958C86.3791 23.3292 85.5166 19.5958 82.9624 17.0375C80.4041 14.4833 76.6707 13.6208 69.2041 11.9L64.0874 10.7167C55.2124 8.67083 50.7791 7.64583 46.5999 8.84166C42.4207 10.0417 39.2041 13.2625 32.7666 19.7L25.1416 27.325C13.9291 38.5333 8.33323 44.1333 8.33323 51.0917C8.33323 58.0542 13.9332 63.6542 25.1374 74.8583C36.3457 86.0667 41.9457 91.6667 48.9082 91.6667C55.8666 91.6667 61.4707 86.0667 72.6749 74.8625L80.2999 67.2375Z" fill="#F59E0B"/>
<path d="M57.8168 30.2958C57.0365 31.0764 56.4176 32.003 55.9955 33.0227C55.5733 34.0424 55.3561 35.1353 55.3563 36.239C55.3565 37.3426 55.574 38.4355 55.9966 39.455C56.4191 40.4746 57.0383 41.401 57.8189 42.1813C58.5994 42.9615 59.526 43.5804 60.5457 44.0026C61.5655 44.4248 62.6583 44.642 63.762 44.6418C64.8657 44.6416 65.9585 44.424 66.9781 44.0015C67.9976 43.5789 68.924 42.9597 69.7043 42.1792C71.2801 40.6028 72.1652 38.465 72.1648 36.236C72.1644 34.0071 71.2786 31.8696 69.7022 30.2938C68.1258 28.7179 65.988 27.8329 63.7591 27.8333C61.5301 27.8336 59.3926 28.7195 57.8168 30.2958ZM20.621 50.2125L49.7001 79.2958C49.9862 79.6029 50.3312 79.8491 50.7145 80.0199C51.0979 80.1907 51.5117 80.2826 51.9313 80.29C52.3509 80.2974 52.7677 80.2202 53.1568 80.063C53.5459 79.9058 53.8994 79.6719 54.1961 79.3752C54.4929 79.0784 54.7268 78.725 54.884 78.3358C55.0411 77.9467 55.1183 77.5299 55.1109 77.1103C55.1035 76.6907 55.0117 76.2769 54.8409 75.8936C54.6701 75.5103 54.4238 75.1653 54.1168 74.8792L25.0376 45.7958C24.7515 45.4888 24.4065 45.2426 24.0232 45.0718C23.6399 44.901 23.2261 44.8091 22.8065 44.8017C22.3869 44.7943 21.9701 44.8715 21.581 45.0287C21.1919 45.1858 20.8384 45.4198 20.5416 45.7165C20.2449 46.0133 20.0109 46.3667 19.8538 46.7559C19.6966 47.145 19.6194 47.5618 19.6268 47.9814C19.6342 48.401 19.7261 48.8148 19.8969 49.1981C20.0677 49.5814 20.3139 49.9264 20.621 50.2125Z" fill="#F59E0B"/>
</svg>
