<svg width="406" height="108" viewBox="0 0 406 108" fill="none" xmlns="http://www.w3.org/2000/svg">
<g clip-path="url(#clip0_6_16)">
<path fill-rule="evenodd" clip-rule="evenodd" d="M403.905 18.6729C402.47 17.0691 400.549 16.2537 397.95 16.2537C395.352 16.2537 393.37 17.1123 391.99 18.8835C390.61 20.5953 389.895 23.1657 389.895 26.5353V50.9649C386.701 47.5305 383.383 45.0681 380.016 43.4103C377.695 42.3202 375.219 41.597 372.675 41.2665C370.994 41.044 369.299 40.9357 367.603 40.9425C359.164 40.9425 352.327 43.8369 347.081 49.6257C341.895 55.4145 339.297 63.4497 339.297 73.7745C339.297 78.6561 339.962 83.2083 341.283 87.3825C342.615 91.5513 344.477 95.2017 347.021 98.3013C349.478 101.32 352.563 103.77 356.062 105.483C359.592 107.165 363.459 108.023 367.37 107.994C369.238 107.994 371.008 107.838 372.659 107.519C373.769 107.357 374.808 107.087 375.864 106.763C378.439 105.912 380.875 104.685 383.091 103.123C385.572 101.306 387.846 99.2239 389.873 96.9135V98.5173C389.873 101.568 390.648 103.874 392.136 105.537C393.684 107.141 395.617 107.994 397.928 107.994C400.3 107.994 402.227 107.19 403.721 105.645C405.199 104.036 405.978 101.682 405.978 98.5281V25.6929C406 22.6311 405.285 20.2713 403.905 18.6729ZM386.75 86.0487C385.261 89.1537 383.269 91.4595 380.849 92.9607C378.359 94.4673 375.653 95.2071 372.675 95.2071H372.621C369.729 95.2204 366.894 94.4051 364.452 92.8581C361.968 91.2489 359.986 88.8945 358.557 85.7895C357.128 82.6305 356.414 78.8235 356.414 74.3253C356.414 70.0917 357.069 66.3495 358.454 63.1905C359.781 59.9721 361.708 57.5097 364.138 55.8033C366.629 54.0321 369.389 53.2275 372.518 53.2275H372.681C375.609 53.2275 378.311 54.0807 380.795 55.7385C383.28 57.4017 385.261 59.8209 386.75 62.9745C388.239 66.1335 388.959 69.9405 388.959 74.3253C388.959 79.0341 388.239 82.9491 386.75 86.0487ZM333.18 86.7507C332.129 85.8435 330.695 85.3575 328.93 85.3575C327.328 85.3575 326.115 85.7355 325.233 86.4321C323.078 88.3545 321.373 89.9097 320.036 91.0329C318.726 92.1075 317.221 93.1767 315.635 94.1865C314.136 95.1438 312.501 95.8702 310.785 96.3411C308.967 96.8249 307.09 97.0575 305.209 97.0323C304.77 97.0323 304.327 97.0323 303.937 96.9783C301.446 96.8474 299.024 96.1115 296.883 94.8345C294.339 93.3927 292.358 91.2597 290.809 88.4679C289.321 85.5735 288.547 82.2579 288.498 78.5049H321.763C326.229 78.5049 329.699 77.8569 332.129 76.6851C334.62 75.3945 335.827 72.7161 335.827 68.5959C335.827 64.0977 334.614 59.7075 332.243 55.3659C329.872 51.0729 326.343 47.5413 321.546 44.8197C316.793 42.0873 311.115 40.7481 304.44 40.7481H303.948C299.038 40.8021 294.512 41.6121 290.49 43.1079C286.488 44.6081 282.854 46.9445 279.831 49.9605C276.944 53.0637 274.732 56.7299 273.335 60.7281C271.803 65.0973 271.034 69.6965 271.062 74.3253C271.062 84.7203 274.104 92.8581 280.167 98.9061C285.905 104.641 293.846 107.643 303.937 107.962C304.494 108.016 305.09 108.016 305.707 108.016C310.449 108.016 314.693 107.422 318.385 106.196C322.082 104.965 325.119 103.458 327.555 101.644C329.969 99.7701 331.794 97.8423 333.006 95.8659C334.219 93.8841 334.831 92.1129 334.831 90.6657C334.831 88.9917 334.289 87.6579 333.18 86.7507ZM293.467 56.4837C296.174 53.6433 299.644 52.2501 303.893 52.2501H303.958C308.365 52.2501 311.954 53.6433 314.655 56.4243C317.362 59.2161 318.959 63.4443 319.349 69.1143H288.503C289.05 63.5523 290.712 59.3187 293.467 56.4837ZM260.744 85.3521C259.093 85.3521 257.88 85.7301 256.998 86.4213C254.903 88.3491 253.138 89.9043 251.812 91.0275C250.485 92.0967 249.051 93.1713 247.449 94.1811C245.857 95.1477 244.249 95.8983 242.544 96.3303C240.727 96.8179 238.85 97.0506 236.968 97.0215C236.535 97.0215 236.091 97.0215 235.702 96.9675C233.21 96.8365 230.787 96.1026 228.643 94.8291C226.08 93.3102 223.997 91.1019 222.634 88.4571C221.086 85.5681 220.312 82.2471 220.252 78.4995H253.571C257.983 78.4995 261.453 77.8515 263.938 76.6743C266.363 75.3891 267.586 72.7107 267.586 68.5905C267.586 64.0869 266.422 59.6967 264.051 55.3605C261.68 51.0675 258.097 47.5305 253.355 44.8089C248.602 42.0819 242.869 40.7427 236.259 40.7427H235.702C230.797 40.7967 226.331 41.6067 222.244 43.1025C218.254 44.5853 214.638 46.9225 211.65 49.9497C208.722 53.0335 206.485 56.7041 205.089 60.7173C203.553 65.0855 202.784 69.6854 202.816 74.3145C202.816 84.7095 205.912 92.8473 211.975 98.8953C217.713 104.635 225.6 107.632 235.696 107.951C236.303 108.005 236.844 108.005 237.461 108.005C242.257 108.005 246.453 107.416 250.144 106.191C253.836 104.954 256.879 103.453 259.298 101.638C261.789 99.7593 263.548 97.8369 264.766 95.8605C265.973 93.8787 266.59 92.1075 266.59 90.6549C266.59 88.9971 266.033 87.6579 264.988 86.7507C263.894 85.8327 262.449 85.3521 260.744 85.3521ZM225.221 56.4837C227.923 53.6433 231.404 52.2501 235.653 52.2501H235.713C240.119 52.2501 243.708 53.6433 246.409 56.4243C249.165 59.2161 250.713 63.4443 251.157 69.1143H220.263C220.869 63.5523 222.531 59.3187 225.221 56.4837ZM35.4408 97.0323V57.6069C36.5885 57.7149 37.6982 57.7635 38.8566 57.7635C44.1631 57.7882 49.3802 56.4014 53.9707 53.7459V97.0215C53.9707 100.72 53.0883 103.447 51.3723 105.273C49.6671 107.087 47.4043 107.994 44.6489 107.994C41.9422 107.994 39.7931 107.087 38.0284 105.213C36.3232 103.399 35.4408 100.666 35.4408 97.0323ZM195.675 18.6783C194.241 17.0691 192.26 16.2537 189.775 16.2537C187.177 16.2537 185.195 17.1123 183.809 18.8835C182.38 20.5953 181.715 23.1657 181.715 26.5353V50.9649C178.521 47.5305 175.219 45.0681 171.841 43.4103C169.521 42.3274 167.049 41.6045 164.511 41.2665C162.828 41.0435 161.131 40.9352 159.433 40.9425C150.994 40.9425 144.097 43.8369 138.917 49.6257C133.725 55.4145 131.132 63.4497 131.132 73.7745C131.132 78.6561 131.798 83.2083 133.059 87.3825C134.277 91.3582 136.247 95.0646 138.863 98.3013C141.318 101.321 144.403 103.772 147.903 105.483C151.433 107.165 155.3 108.023 159.211 107.994C161.03 107.994 162.795 107.838 164.5 107.519C165.61 107.357 166.655 107.087 167.705 106.763C170.28 105.912 172.716 104.685 174.932 103.123C177.189 101.514 179.408 99.4245 181.709 96.9135V98.5173C181.709 101.568 182.489 103.874 183.977 105.537C185.466 107.141 187.458 107.994 189.77 107.994C192.027 107.994 194.019 107.19 195.508 105.645C196.996 104.036 197.705 101.682 197.705 98.5281V25.6929C197.711 22.6311 197.056 20.2713 195.681 18.6729L195.675 18.6783ZM178.569 86.0487C177.086 89.1537 175.094 91.4595 172.615 92.9607C170.19 94.4673 167.423 95.2071 164.511 95.2071H164.457C161.479 95.2071 158.773 94.4025 156.293 92.8581C153.76 91.2489 151.827 88.8945 150.393 85.7895C148.964 82.6305 148.244 78.8235 148.244 74.3253C148.244 70.0917 148.91 66.3495 150.225 63.1905C151.6 59.9721 153.479 57.5097 155.963 55.8033C158.388 54.0321 161.203 53.2275 164.294 53.2275H164.511C167.434 53.2275 170.135 54.0807 172.566 55.7385C175.105 57.4017 177.086 59.8209 178.575 62.9745C180.004 66.1335 180.783 69.9405 180.783 74.3253C180.783 79.0341 179.998 82.9491 178.569 86.0487ZM81.1727 49.9497V51.9909C84.2041 48.1299 87.4575 45.3489 90.9925 43.5237C94.5761 41.7633 98.6577 40.8453 103.292 40.8453C107.763 40.8453 111.79 41.8173 115.309 43.6857C118.727 45.4602 121.49 48.2746 123.196 51.7209C124.36 53.7513 125.08 55.9545 125.405 58.3143C125.735 60.6147 125.898 63.6117 125.898 67.2567V97.9557C125.898 101.271 125.069 103.788 123.527 105.445C121.989 107.157 119.943 108.01 117.464 108.01C114.919 108.01 112.884 107.157 111.282 105.397C109.679 103.674 108.905 101.169 108.905 97.9557V70.4535C108.905 64.9941 108.131 60.8199 106.588 57.9255C105.045 55.0419 101.895 53.5893 97.2773 53.5893C94.235 53.5893 91.4851 54.4965 88.9949 56.2137C86.4552 58.0257 84.5322 60.5696 83.4842 63.5037C82.6559 65.9607 82.2716 70.5129 82.2716 77.3277V97.9449C82.2716 101.314 81.4488 103.777 79.8518 105.499C78.2495 107.157 76.2141 108.01 73.6698 108.01C71.1851 108.01 69.193 107.157 67.6014 105.397C65.9991 103.674 65.2304 101.169 65.2304 97.9557V50.2197C65.2304 47.0661 65.9504 44.7117 67.3849 43.1997C68.7599 41.6553 70.687 40.8453 73.1772 40.8453C74.6658 40.8453 75.9921 41.1693 77.1993 41.8659C78.4119 42.5571 79.3971 43.5777 80.1225 44.9655C80.837 46.3587 81.1727 48.0273 81.1727 49.9497ZM35.5437 2.55387C47.0199 -1.46373 60.0931 -1.24773 69.9075 6.99267C71.7318 8.65047 73.8214 10.7457 74.6496 13.2027C75.6457 16.3185 71.1797 12.8787 70.568 12.4521C67.3633 10.4163 64.1694 8.70447 60.5858 7.52727C41.2818 1.74927 23.0172 12.1929 11.6601 28.4253C6.91798 35.5857 3.82696 43.1457 1.29893 51.4401C1.01744 52.3473 0.800908 53.5299 0.302881 54.3291C-0.200559 55.2471 0.0863479 51.8721 0.0863479 51.7587C0.465281 48.3297 1.18525 45.0087 2.07845 41.6931C7.31315 24.0189 18.8923 9.29307 35.5491 2.54307L35.5437 2.55387ZM57.7708 34.3113C57.6708 37.8483 56.192 41.207 53.6487 43.6735C51.1054 46.1401 47.6981 47.52 44.1509 47.52C40.6037 47.52 37.1964 46.1401 34.653 43.6735C32.1097 41.207 30.6309 37.8483 30.5309 34.3113C30.4796 32.4949 30.7939 30.6866 31.4553 28.9935C32.1166 27.3003 33.1117 25.7566 34.3815 24.4537C35.6513 23.1508 37.1701 22.1152 38.8481 21.408C40.5261 20.7008 42.3293 20.3364 44.1509 20.3364C45.9725 20.3364 47.7757 20.7008 49.4537 21.408C51.1317 22.1152 52.6505 23.1508 53.9203 24.4537C55.1901 25.7566 56.1851 27.3003 56.8465 28.9935C57.5079 30.6866 57.8222 32.4949 57.7708 34.3113Z" fill="#003A9B"/>
</g>
<defs>
<clipPath id="clip0_6_16">
<rect width="406" height="108" fill="white"/>
</clipPath>
</defs>
</svg>
