<svg width="345" height="86" viewBox="0 0 345 86" fill="none" xmlns="http://www.w3.org/2000/svg">
<path d="M87.8561 64.272H97.495V51.3162L102.237 45.5283L114.725 64.272H126.256L109.137 39.0949L126.056 18.6817H114.502L98.0961 38.7833H97.495V18.6817H87.8561V64.272ZM140.648 64.9176C145.701 64.9176 148.973 62.7137 150.643 59.5304H150.91V64.272H159.903V41.2097C159.903 33.0622 153.003 29.634 145.389 29.634C137.197 29.634 131.81 33.552 130.497 39.785L139.268 40.4974C139.913 38.2267 141.939 36.5572 145.345 36.5572C148.573 36.5572 150.42 38.1822 150.42 40.9871V41.1207C150.42 43.3245 148.083 43.6139 142.139 44.1927C135.372 44.816 129.295 47.0866 129.295 54.7221C129.295 61.4894 134.125 64.9176 140.648 64.9176ZM143.364 58.3729C140.447 58.3729 138.355 57.0149 138.355 54.4104C138.355 51.7391 140.559 50.4257 143.898 49.9582C145.968 49.6689 149.352 49.1791 150.487 48.4222V52.0508C150.487 55.6348 147.526 58.3729 143.364 58.3729ZM167.261 64.272H176.744V44.9273C176.744 40.72 179.816 37.8261 184.001 37.8261C185.314 37.8261 187.117 38.0487 188.008 38.3381V29.9234C187.162 29.7231 185.982 29.5895 185.025 29.5895C181.196 29.5895 178.057 31.8156 176.811 36.0452H176.454V30.0793H167.261V64.272ZM192.911 64.272H202.394V30.0793H192.911V64.272ZM197.675 25.6716C200.502 25.6716 202.817 23.5123 202.817 20.8632C202.817 18.2365 200.502 16.0771 197.675 16.0771C194.87 16.0771 192.555 18.2365 192.555 20.8632C192.555 23.5123 194.87 25.6716 197.675 25.6716ZM209.99 64.272H219.474V44.9273C219.474 40.72 222.546 37.8261 226.731 37.8261C228.044 37.8261 229.847 38.0487 230.738 38.3381V29.9234C229.892 29.7231 228.712 29.5895 227.755 29.5895C223.926 29.5895 220.787 31.8156 219.54 36.0452H219.184V30.0793H209.99V64.272Z" fill="#1A1A1A"/>
<path d="M241.61 43.7029C241.61 37.737 245.416 34.3534 250.603 34.3534C255.545 34.3534 258.528 37.4699 258.528 42.9015V64.272H263.782V42.5454C263.782 33.7523 259.107 29.634 252.117 29.634C246.73 29.634 243.658 31.8824 242.055 35.4219H241.61V18.6817H236.356V64.272H241.61V43.7029ZM294.941 50.2922C294.941 56.7033 290.044 59.6417 286.126 59.6417C281.763 59.6417 278.646 56.4362 278.646 51.4497V30.0793H273.393V51.8059C273.393 60.5322 278.023 64.7172 284.434 64.7172C289.599 64.7172 292.982 61.9569 294.585 58.4842H294.941V64.272H300.195V30.0793H294.941V50.2922ZM310.53 64.272H315.605V59.0184H316.228C317.386 60.8883 319.612 64.9844 326.201 64.9844C334.749 64.9844 340.715 58.128 340.715 47.2647C340.715 36.4904 334.749 29.634 326.112 29.634C319.434 29.634 317.386 33.73 316.228 35.5109H315.783V18.6817H310.53V64.272ZM315.694 47.1756C315.694 39.5179 319.078 34.3534 325.489 34.3534C332.167 34.3534 335.462 39.9631 335.462 47.1756C335.462 54.4772 332.078 60.265 325.489 60.265C319.167 60.265 315.694 54.9224 315.694 47.1756Z" fill="#1A1A1A"/>
<path d="M0 28C0 33.1 4.10001 37.2 9.20001 37.2H27.8C30.5 37.2 32.7 39.4 32.7 42.1V63C32.7 68.1 36.8 72.2 41.9 72.2C47 72.2 51.1 68.1 51.1 63V27.9C51.1 25.5 50.2 23.2 48.4 21.4C46.6 19.6 44.2 18.7 41.9 18.7H9.10004C4.20004 18.7 0 22.8 0 28Z" fill="#339AF0"/>
<path d="M60.6 19C65.8467 19 70.1 14.7467 70.1 9.5C70.1 4.25329 65.8467 0 60.6 0C55.3533 0 51.1 4.25329 51.1 9.5C51.1 14.7467 55.3533 19 60.6 19Z" fill="#339AF0"/>
<path d="M240.66 83.0606C243.017 83.0606 244.484 81.4472 244.484 79.0549C244.484 76.6474 243.017 75.0391 240.66 75.0391C238.303 75.0391 236.837 76.6474 236.837 79.0549C236.837 81.4472 238.303 83.0606 240.66 83.0606ZM240.67 81.3916C239.583 81.3916 239.027 80.3952 239.027 79.0397C239.027 77.6843 239.583 76.6828 240.67 76.6828C241.737 76.6828 242.294 77.6843 242.294 79.0397C242.294 80.3952 241.737 81.3916 240.67 81.3916ZM248.039 72.5506H245.885V82.9089H248.039V72.5506ZM253.306 83.0606C255.228 83.0606 256.523 82.125 256.826 80.6835L254.833 80.552C254.616 81.1438 254.059 81.4523 253.341 81.4523C252.264 81.4523 251.581 80.7391 251.581 79.5809V79.5759H256.871V78.9841C256.871 76.344 255.273 75.0391 253.22 75.0391C250.934 75.0391 249.452 76.6626 249.452 79.06C249.452 81.5231 250.913 83.0606 253.306 83.0606ZM251.581 78.2406C251.627 77.3555 252.299 76.6474 253.255 76.6474C254.191 76.6474 254.838 77.315 254.843 78.2406H251.581ZM260.432 78.4176C260.437 77.4162 261.049 76.8295 261.929 76.8295C262.804 76.8295 263.32 77.3909 263.315 78.3468V82.9089H265.47V77.9624C265.475 76.1416 264.402 75.0391 262.784 75.0391C261.606 75.0391 260.817 75.5954 260.462 76.5109H260.371V72.5506H258.278V82.9089H260.432V78.4176ZM270.502 82.9089H272.692V79.9653L273.769 78.6503L276.607 82.9089H279.227L275.337 77.1886L279.181 72.5506H276.556L272.829 77.1178H272.692V72.5506H270.502V82.9089ZM283.251 83.0606C285.173 83.0606 286.468 82.125 286.772 80.6835L284.779 80.552C284.561 81.1438 284.005 81.4523 283.287 81.4523C282.21 81.4523 281.527 80.7391 281.527 79.5809V79.5759H286.817V78.9841C286.817 76.344 285.219 75.0391 283.165 75.0391C280.879 75.0391 279.397 76.6626 279.397 79.06C279.397 81.5231 280.859 83.0606 283.251 83.0606ZM281.527 78.2406C281.572 77.3555 282.245 76.6474 283.201 76.6474C284.137 76.6474 284.784 77.315 284.789 78.2406H281.527ZM288.223 82.9089H290.378V78.2457C290.378 77.3859 290.924 76.8143 291.642 76.8143C292.35 76.8143 292.826 77.2999 292.826 78.0636V82.9089H294.915V78.1647C294.915 77.3606 295.375 76.8143 296.159 76.8143C296.847 76.8143 297.363 77.2442 297.363 78.1091V82.9089H299.512V77.6843C299.512 76 298.511 75.0391 297.064 75.0391C295.926 75.0391 295.041 75.6207 294.722 76.5109H294.641C294.394 75.6106 293.6 75.0391 292.532 75.0391C291.485 75.0391 290.691 75.5954 290.368 76.5109H290.277V75.1402H288.223V82.9089ZM303.369 78.4176C303.374 77.4162 303.97 76.8295 304.84 76.8295C305.705 76.8295 306.226 77.396 306.221 78.3468V82.9089H308.376V77.9624C308.376 76.1518 307.314 75.0391 305.695 75.0391C304.542 75.0391 303.707 75.6055 303.358 76.5109H303.267V75.1402H301.214V82.9089H303.369V78.4176ZM312.289 83.0556C313.437 83.0556 314.181 82.5549 314.56 81.8316H314.621V82.9089H316.664V77.6691C316.664 75.818 315.096 75.0391 313.366 75.0391C311.505 75.0391 310.281 75.9292 309.983 77.3454L311.976 77.5072C312.122 76.9913 312.583 76.612 313.356 76.612C314.09 76.612 314.51 76.9812 314.51 77.6185V77.6489C314.51 78.1496 313.978 78.2153 312.628 78.3468C311.09 78.4884 309.71 79.0043 309.71 80.7391C309.71 82.2767 310.807 83.0556 312.289 83.0556ZM312.906 81.5686C312.244 81.5686 311.768 81.2601 311.768 80.6683C311.768 80.0614 312.269 79.763 313.028 79.6568C313.498 79.591 314.267 79.4798 314.525 79.3078V80.1322C314.525 80.9465 313.852 81.5686 312.906 81.5686ZM318.336 82.9089H320.49V80.4407L321.072 79.7782L323.191 82.9089H325.715L322.685 78.5036L325.568 75.1402H323.095L320.607 78.0889H320.49V72.5506H318.336V82.9089ZM329.846 83.0606C331.768 83.0606 333.063 82.125 333.366 80.6835L331.373 80.552C331.156 81.1438 330.599 81.4523 329.881 81.4523C328.804 81.4523 328.121 80.7391 328.121 79.5809V79.5759H333.412V78.9841C333.412 76.344 331.813 75.0391 329.76 75.0391C327.474 75.0391 325.992 76.6626 325.992 79.06C325.992 81.5231 327.454 83.0606 329.846 83.0606ZM328.121 78.2406C328.167 77.3555 328.839 76.6474 329.795 76.6474C330.731 76.6474 331.378 77.315 331.383 78.2406H328.121ZM334.818 82.9089H336.972V78.5137C336.972 77.5578 337.67 76.9003 338.621 76.9003C338.919 76.9003 339.329 76.9509 339.531 77.0166V75.1048C339.339 75.0593 339.071 75.0289 338.854 75.0289C337.984 75.0289 337.271 75.5347 336.987 76.4957H336.906V75.1402H334.818V82.9089Z" fill="#808080"/>
</svg>
