<svg width="119" height="38" viewBox="0 0 119 38" fill="none" xmlns="http://www.w3.org/2000/svg">
<path d="M29.5 14.25H30.25C31.6525 14.25 32.353 14.25 32.875 14.5515C33.217 14.749 33.501 15.033 33.6985 15.375C34 15.897 34 16.5975 34 18C34 19.4025 34 20.103 33.6985 20.625C33.501 20.967 33.217 21.251 32.875 21.4485C32.353 21.75 31.6525 21.75 30.25 21.75H29.5M8.5 14.25H7.75C6.3475 14.25 5.647 14.25 5.125 14.5515C4.78299 14.749 4.49897 15.033 4.3015 15.375C4 15.897 4 16.5975 4 18C4 19.4025 4 20.103 4.3015 20.625C4.49897 20.967 4.78299 21.251 5.125 21.4485C5.647 21.75 6.3475 21.75 7.75 21.75H8.5M17.5 9H20.5C24.742 9 26.8645 9 28.1815 10.3185C29.5 11.6355 29.5 13.758 29.5 18C29.5 22.242 29.5 24.3645 28.1815 25.6815C26.8645 27 24.742 27 20.5 27H19C19 27 18.25 30 13 30C13 30 14.5 28.4865 14.5 26.9745C12.1705 26.904 10.78 26.6445 9.8185 25.6815C8.5 24.3645 8.5 22.242 8.5 18C8.5 13.758 8.5 11.6355 9.8185 10.3185C11.1355 9 13.258 9 17.5 9Z" stroke="#8B5CF6" stroke-width="3" stroke-linecap="round" stroke-linejoin="round"/>
<path d="M23 21H15M19 16H15" stroke="#8B5CF6" stroke-width="2" stroke-linecap="round" stroke-linejoin="round"/>
<path d="M46.732 19.878C46.1953 19.8967 45.7427 19.941 45.374 20.011C45.0053 20.0763 44.7067 20.1627 44.478 20.27C44.2493 20.3727 44.0837 20.4963 43.981 20.641C43.883 20.7857 43.834 20.9443 43.834 21.117C43.834 21.285 43.8597 21.4297 43.911 21.551C43.967 21.6677 44.0417 21.7657 44.135 21.845C44.233 21.9197 44.345 21.9757 44.471 22.013C44.6017 22.0457 44.744 22.062 44.898 22.062C45.29 22.062 45.626 21.9897 45.906 21.845C46.1907 21.6957 46.466 21.481 46.732 21.201V19.878ZM42.742 16.854C43.5493 16.1027 44.5107 15.727 45.626 15.727C46.0367 15.727 46.4007 15.7947 46.718 15.93C47.04 16.0607 47.3083 16.2473 47.523 16.49C47.7423 16.7327 47.908 17.022 48.02 17.358C48.1367 17.6893 48.195 18.058 48.195 18.464V23H47.523C47.3783 23 47.2687 22.979 47.194 22.937C47.1193 22.8903 47.0563 22.7993 47.005 22.664L46.858 22.083C46.676 22.2463 46.4963 22.3933 46.319 22.524C46.1417 22.65 45.9573 22.7573 45.766 22.846C45.5793 22.9347 45.3763 23 45.157 23.042C44.9423 23.0887 44.7043 23.112 44.443 23.112C44.1537 23.112 43.883 23.0723 43.631 22.993C43.3837 22.9137 43.169 22.7947 42.987 22.636C42.805 22.4727 42.6603 22.272 42.553 22.034C42.4503 21.796 42.399 21.516 42.399 21.194C42.399 20.9187 42.4713 20.6503 42.616 20.389C42.7653 20.1277 43.008 19.8943 43.344 19.689C43.6847 19.479 44.1303 19.3063 44.681 19.171C45.2363 19.0357 45.92 18.9587 46.732 18.94V18.464C46.732 17.9507 46.6223 17.568 46.403 17.316C46.1837 17.064 45.8617 16.938 45.437 16.938C45.1477 16.938 44.905 16.9753 44.709 17.05C44.513 17.12 44.3427 17.197 44.198 17.281C44.0533 17.365 43.925 17.4443 43.813 17.519C43.701 17.589 43.582 17.624 43.456 17.624C43.3533 17.624 43.2647 17.5983 43.19 17.547C43.12 17.491 43.0617 17.4233 43.015 17.344L42.742 16.854ZM51.379 17.183C51.603 16.7303 51.8737 16.3757 52.191 16.119C52.5083 15.8577 52.8887 15.727 53.332 15.727C53.486 15.727 53.6307 15.7457 53.766 15.783C53.9013 15.8157 54.0227 15.867 54.13 15.937L54.025 17.071C54.0063 17.1503 53.976 17.2063 53.934 17.239C53.8967 17.267 53.8453 17.281 53.78 17.281C53.71 17.281 53.6097 17.2693 53.479 17.246C53.3483 17.218 53.2107 17.204 53.066 17.204C52.856 17.204 52.6693 17.2343 52.506 17.295C52.3473 17.3557 52.2027 17.4443 52.072 17.561C51.946 17.6777 51.834 17.82 51.736 17.988C51.638 18.156 51.547 18.3473 51.463 18.562V23H49.958V15.86H50.833C50.9917 15.86 51.1013 15.8903 51.162 15.951C51.2227 16.007 51.2647 16.1073 51.288 16.252L51.379 17.183ZM62.056 23H60.551V17.043H57.072V21.096C57.072 21.3527 57.135 21.5487 57.261 21.684C57.387 21.8193 57.555 21.887 57.765 21.887C57.8817 21.887 57.982 21.873 58.066 21.845C58.15 21.8123 58.2223 21.7797 58.283 21.747C58.3437 21.7097 58.395 21.677 58.437 21.649C58.4837 21.6163 58.528 21.6 58.57 21.6C58.654 21.6 58.7217 21.6467 58.773 21.74L59.221 22.475C58.9877 22.6803 58.7123 22.839 58.395 22.951C58.0777 23.0583 57.751 23.112 57.415 23.112C56.8223 23.112 56.365 22.9463 56.043 22.615C55.7257 22.279 55.567 21.8077 55.567 21.201V17.043H54.783C54.699 17.043 54.6267 17.0173 54.566 16.966C54.5053 16.91 54.475 16.8283 54.475 16.721V16.112L55.63 15.944L55.959 13.879C55.9823 13.7997 56.022 13.7367 56.078 13.69C56.134 13.6387 56.2087 13.613 56.302 13.613H57.072V15.958H62.056V23ZM62.364 13.669C62.364 13.8043 62.336 13.9327 62.28 14.054C62.2287 14.1707 62.1563 14.2757 62.063 14.369C61.9697 14.4577 61.86 14.53 61.734 14.586C61.6127 14.6373 61.4843 14.663 61.349 14.663C61.2137 14.663 61.0853 14.6373 60.964 14.586C60.8473 14.53 60.7423 14.4577 60.649 14.369C60.5603 14.2757 60.488 14.1707 60.432 14.054C60.3807 13.9327 60.355 13.8043 60.355 13.669C60.355 13.529 60.3807 13.3983 60.432 13.277C60.488 13.151 60.5603 13.0437 60.649 12.955C60.7423 12.8617 60.8473 12.7893 60.964 12.738C61.0853 12.682 61.2137 12.654 61.349 12.654C61.4843 12.654 61.6127 12.682 61.734 12.738C61.86 12.7893 61.9697 12.8617 62.063 12.955C62.1563 13.0437 62.2287 13.151 62.28 13.277C62.336 13.3983 62.364 13.529 62.364 13.669ZM73.989 15.86L71.7 23H70.503C70.363 23 70.265 22.909 70.209 22.727L68.788 18.282C68.7507 18.156 68.7157 18.03 68.683 17.904C68.655 17.778 68.6293 17.6543 68.606 17.533C68.5547 17.785 68.4917 18.037 68.417 18.289L66.975 22.727C66.9237 22.909 66.814 23 66.646 23H65.505L63.216 15.86H64.406C64.5227 15.86 64.6183 15.8903 64.693 15.951C64.7723 16.007 64.8237 16.0747 64.847 16.154L66.037 20.312C66.0837 20.5033 66.1233 20.69 66.156 20.872C66.1933 21.0493 66.226 21.2267 66.254 21.404C66.3007 21.2267 66.3497 21.0493 66.401 20.872C66.4523 20.69 66.506 20.5033 66.562 20.312L67.899 16.133C67.9223 16.049 67.969 15.9813 68.039 15.93C68.1137 15.874 68.2023 15.846 68.305 15.846H68.963C69.0703 15.846 69.1613 15.874 69.236 15.93C69.3107 15.9813 69.3597 16.049 69.383 16.133L70.685 20.312C70.741 20.5033 70.7923 20.69 70.839 20.872C70.8903 21.054 70.937 21.236 70.979 21.418C71.0117 21.2407 71.0467 21.061 71.084 20.879C71.1213 20.697 71.1657 20.508 71.217 20.312L72.428 16.154C72.456 16.07 72.5073 16 72.582 15.944C72.6567 15.888 72.7477 15.86 72.855 15.86H73.989ZM78.8062 19.878C78.2696 19.8967 77.8169 19.941 77.4482 20.011C77.0796 20.0763 76.7809 20.1627 76.5522 20.27C76.3236 20.3727 76.1579 20.4963 76.0552 20.641C75.9572 20.7857 75.9082 20.9443 75.9082 21.117C75.9082 21.285 75.9339 21.4297 75.9852 21.551C76.0412 21.6677 76.1159 21.7657 76.2092 21.845C76.3072 21.9197 76.4192 21.9757 76.5452 22.013C76.6759 22.0457 76.8182 22.062 76.9722 22.062C77.3642 22.062 77.7002 21.9897 77.9802 21.845C78.2649 21.6957 78.5402 21.481 78.8062 21.201V19.878ZM74.8162 16.854C75.6236 16.1027 76.5849 15.727 77.7002 15.727C78.1109 15.727 78.4749 15.7947 78.7922 15.93C79.1142 16.0607 79.3826 16.2473 79.5972 16.49C79.8166 16.7327 79.9822 17.022 80.0942 17.358C80.2109 17.6893 80.2692 18.058 80.2692 18.464V23H79.5972C79.4526 23 79.3429 22.979 79.2682 22.937C79.1936 22.8903 79.1306 22.7993 79.0792 22.664L78.9322 22.083C78.7502 22.2463 78.5706 22.3933 78.3932 22.524C78.2159 22.65 78.0316 22.7573 77.8402 22.846C77.6536 22.9347 77.4506 23 77.2312 23.042C77.0166 23.0887 76.7786 23.112 76.5172 23.112C76.2279 23.112 75.9572 23.0723 75.7052 22.993C75.4579 22.9137 75.2432 22.7947 75.0612 22.636C74.8792 22.4727 74.7346 22.272 74.6272 22.034C74.5246 21.796 74.4732 21.516 74.4732 21.194C74.4732 20.9187 74.5456 20.6503 74.6902 20.389C74.8396 20.1277 75.0822 19.8943 75.4182 19.689C75.7589 19.479 76.2046 19.3063 76.7552 19.171C77.3106 19.0357 77.9942 18.9587 78.8062 18.94V18.464C78.8062 17.9507 78.6966 17.568 78.4772 17.316C78.2579 17.064 77.9359 16.938 77.5112 16.938C77.2219 16.938 76.9792 16.9753 76.7832 17.05C76.5872 17.12 76.4169 17.197 76.2722 17.281C76.1276 17.365 75.9992 17.4443 75.8872 17.519C75.7752 17.589 75.6562 17.624 75.5302 17.624C75.4276 17.624 75.3389 17.5983 75.2642 17.547C75.1942 17.491 75.1359 17.4233 75.0892 17.344L74.8162 16.854ZM83.4392 16.805C83.5932 16.6463 83.7519 16.504 83.9152 16.378C84.0832 16.2473 84.2606 16.1353 84.4472 16.042C84.6339 15.9487 84.8322 15.8763 85.0422 15.825C85.2522 15.7737 85.4809 15.748 85.7282 15.748C86.1202 15.748 86.4632 15.8133 86.7572 15.944C87.0559 16.0747 87.3056 16.259 87.5062 16.497C87.7116 16.735 87.8656 17.022 87.9682 17.358C88.0709 17.6893 88.1222 18.0557 88.1222 18.457V23H86.6242V18.457C86.6242 17.9763 86.5122 17.603 86.2882 17.337C86.0689 17.071 85.7329 16.938 85.2802 16.938C84.9442 16.938 84.6316 17.015 84.3422 17.169C84.0576 17.323 83.7892 17.533 83.5372 17.799V23H82.0322V15.86H82.9422C83.1476 15.86 83.2782 15.9557 83.3342 16.147L83.4392 16.805ZM94.9269 17.26C94.8802 17.3207 94.8359 17.3673 94.7939 17.4C94.7519 17.4327 94.6912 17.449 94.6119 17.449C94.5326 17.449 94.4486 17.421 94.3599 17.365C94.2759 17.309 94.1732 17.2483 94.0519 17.183C93.9352 17.113 93.7929 17.05 93.6249 16.994C93.4569 16.938 93.2469 16.91 92.9949 16.91C92.6682 16.91 92.3812 16.9683 92.1339 17.085C91.8912 17.2017 91.6859 17.3697 91.5179 17.589C91.3546 17.8037 91.2309 18.0673 91.1469 18.38C91.0676 18.688 91.0279 19.0357 91.0279 19.423C91.0279 19.8243 91.0722 20.1813 91.1609 20.494C91.2496 20.8067 91.3756 21.0703 91.5389 21.285C91.7069 21.4997 91.9076 21.663 92.1409 21.775C92.3789 21.887 92.6449 21.943 92.9389 21.943C93.2282 21.943 93.4639 21.908 93.6459 21.838C93.8279 21.768 93.9796 21.691 94.1009 21.607C94.2222 21.523 94.3249 21.446 94.4089 21.376C94.4976 21.306 94.5909 21.271 94.6889 21.271C94.8102 21.271 94.9036 21.3177 94.9689 21.411L95.3959 21.964C95.2232 22.174 95.0319 22.3513 94.8219 22.496C94.6119 22.6407 94.3902 22.7597 94.1569 22.853C93.9236 22.9417 93.6809 23.0047 93.4289 23.042C93.1769 23.084 92.9226 23.105 92.6659 23.105C92.2226 23.105 91.8072 23.0233 91.4199 22.86C91.0372 22.692 90.7012 22.4517 90.4119 22.139C90.1272 21.8217 89.9009 21.4367 89.7329 20.984C89.5696 20.5267 89.4879 20.0063 89.4879 19.423C89.4879 18.8957 89.5626 18.408 89.7119 17.96C89.8612 17.5073 90.0782 17.1177 90.3629 16.791C90.6522 16.4643 91.0092 16.21 91.4339 16.028C91.8586 15.8413 92.3486 15.748 92.9039 15.748C93.4219 15.748 93.8769 15.832 94.2689 16C94.6656 16.168 95.0179 16.406 95.3259 16.714L94.9269 17.26ZM100.421 19.878C99.8848 19.8967 99.4321 19.941 99.0635 20.011C98.6948 20.0763 98.3961 20.1627 98.1675 20.27C97.9388 20.3727 97.7731 20.4963 97.6705 20.641C97.5725 20.7857 97.5235 20.9443 97.5235 21.117C97.5235 21.285 97.5491 21.4297 97.6005 21.551C97.6565 21.6677 97.7311 21.7657 97.8245 21.845C97.9225 21.9197 98.0345 21.9757 98.1605 22.013C98.2911 22.0457 98.4335 22.062 98.5875 22.062C98.9795 22.062 99.3155 21.9897 99.5955 21.845C99.8801 21.6957 100.155 21.481 100.421 21.201V19.878ZM96.4315 16.854C97.2388 16.1027 98.2001 15.727 99.3155 15.727C99.7261 15.727 100.09 15.7947 100.407 15.93C100.729 16.0607 100.998 16.2473 101.212 16.49C101.432 16.7327 101.597 17.022 101.709 17.358C101.826 17.6893 101.884 18.058 101.884 18.464V23H101.212C101.068 23 100.958 22.979 100.883 22.937C100.809 22.8903 100.746 22.7993 100.694 22.664L100.547 22.083C100.365 22.2463 100.186 22.3933 100.008 22.524C99.8311 22.65 99.6468 22.7573 99.4555 22.846C99.2688 22.9347 99.0658 23 98.8465 23.042C98.6318 23.0887 98.3938 23.112 98.1325 23.112C97.8431 23.112 97.5725 23.0723 97.3205 22.993C97.0731 22.9137 96.8585 22.7947 96.6765 22.636C96.4945 22.4727 96.3498 22.272 96.2425 22.034C96.1398 21.796 96.0885 21.516 96.0885 21.194C96.0885 20.9187 96.1608 20.6503 96.3055 20.389C96.4548 20.1277 96.6975 19.8943 97.0335 19.689C97.3741 19.479 97.8198 19.3063 98.3705 19.171C98.9258 19.0357 99.6095 18.9587 100.421 18.94V18.464C100.421 17.9507 100.312 17.568 100.092 17.316C99.8731 17.064 99.5511 16.938 99.1265 16.938C98.8371 16.938 98.5945 16.9753 98.3985 17.05C98.2025 17.12 98.0321 17.197 97.8875 17.281C97.7428 17.365 97.6145 17.4443 97.5025 17.519C97.3905 17.589 97.2715 17.624 97.1455 17.624C97.0428 17.624 96.9541 17.5983 96.8795 17.547C96.8095 17.491 96.7511 17.4233 96.7045 17.344L96.4315 16.854ZM105.068 17.183C105.292 16.7303 105.563 16.3757 105.88 16.119C106.198 15.8577 106.578 15.727 107.021 15.727C107.175 15.727 107.32 15.7457 107.455 15.783C107.591 15.8157 107.712 15.867 107.819 15.937L107.714 17.071C107.696 17.1503 107.665 17.2063 107.623 17.239C107.586 17.267 107.535 17.281 107.469 17.281C107.399 17.281 107.299 17.2693 107.168 17.246C107.038 17.218 106.9 17.204 106.755 17.204C106.545 17.204 106.359 17.2343 106.195 17.295C106.037 17.3557 105.892 17.4443 105.761 17.561C105.635 17.6777 105.523 17.82 105.425 17.988C105.327 18.156 105.236 18.3473 105.152 18.562V23H103.647V15.86H104.522C104.681 15.86 104.791 15.8903 104.851 15.951C104.912 16.007 104.954 16.1073 104.977 16.252L105.068 17.183ZM112.521 19.878C111.984 19.8967 111.532 19.941 111.163 20.011C110.794 20.0763 110.496 20.1627 110.267 20.27C110.038 20.3727 109.873 20.4963 109.77 20.641C109.672 20.7857 109.623 20.9443 109.623 21.117C109.623 21.285 109.649 21.4297 109.7 21.551C109.756 21.6677 109.831 21.7657 109.924 21.845C110.022 21.9197 110.134 21.9757 110.26 22.013C110.391 22.0457 110.533 22.062 110.687 22.062C111.079 22.062 111.415 21.9897 111.695 21.845C111.98 21.6957 112.255 21.481 112.521 21.201V19.878ZM108.531 16.854C109.338 16.1027 110.3 15.727 111.415 15.727C111.826 15.727 112.19 15.7947 112.507 15.93C112.829 16.0607 113.097 16.2473 113.312 16.49C113.531 16.7327 113.697 17.022 113.809 17.358C113.926 17.6893 113.984 18.058 113.984 18.464V23H113.312C113.167 23 113.058 22.979 112.983 22.937C112.908 22.8903 112.845 22.7993 112.794 22.664L112.647 22.083C112.465 22.2463 112.285 22.3933 112.108 22.524C111.931 22.65 111.746 22.7573 111.555 22.846C111.368 22.9347 111.165 23 110.946 23.042C110.731 23.0887 110.493 23.112 110.232 23.112C109.943 23.112 109.672 23.0723 109.42 22.993C109.173 22.9137 108.958 22.7947 108.776 22.636C108.594 22.4727 108.449 22.272 108.342 22.034C108.239 21.796 108.188 21.516 108.188 21.194C108.188 20.9187 108.26 20.6503 108.405 20.389C108.554 20.1277 108.797 19.8943 109.133 19.689C109.474 19.479 109.919 19.3063 110.47 19.171C111.025 19.0357 111.709 18.9587 112.521 18.94V18.464C112.521 17.9507 112.411 17.568 112.192 17.316C111.973 17.064 111.651 16.938 111.226 16.938C110.937 16.938 110.694 16.9753 110.498 17.05C110.302 17.12 110.132 17.197 109.987 17.281C109.842 17.365 109.714 17.4443 109.602 17.519C109.49 17.589 109.371 17.624 109.245 17.624C109.142 17.624 109.054 17.5983 108.979 17.547C108.909 17.491 108.851 17.4233 108.804 17.344L108.531 16.854Z" fill="#8B5CF6"/>
</svg>
