<svg width="100" height="100" viewBox="0 0 100 100" fill="none" xmlns="http://www.w3.org/2000/svg">
<path opacity="0.5" d="M8.33325 66.6667C8.33325 54.8833 8.33325 48.9875 11.9958 45.3292C15.6541 41.6667 21.5499 41.6667 33.3333 41.6667H66.6666C78.4499 41.6667 84.3458 41.6667 88.0041 45.3292C91.6666 48.9875 91.6666 54.8833 91.6666 66.6667C91.6666 78.45 91.6666 84.3458 88.0041 88.0042C84.3458 91.6667 78.4499 91.6667 66.6666 91.6667H33.3333C21.5499 91.6667 15.6541 91.6667 11.9958 88.0042C8.33325 84.3458 8.33325 78.45 8.33325 66.6667Z" fill="#10B981"/>
<path d="M28.125 33.3333C28.125 27.5317 30.4297 21.9677 34.532 17.8654C38.6344 13.763 44.1984 11.4583 50 11.4583C55.8016 11.4583 61.3656 13.763 65.468 17.8654C69.5703 21.9677 71.875 27.5317 71.875 33.3333V41.6833C74.2375 41.7042 76.3083 41.7583 78.125 41.8917V33.3333C78.125 25.8741 75.1618 18.7204 69.8874 13.446C64.6129 8.1715 57.4592 5.20834 50 5.20834C42.5408 5.20834 35.3871 8.1715 30.1126 13.446C24.8382 18.7204 21.875 25.8741 21.875 33.3333V41.8958C23.9555 41.7587 26.0399 41.6878 28.125 41.6833V33.3333Z" fill="#10B981"/>
</svg>
