<svg width="100" height="100" viewBox="0 0 100 100" fill="none" xmlns="http://www.w3.org/2000/svg">
<path d="M45.8334 41.6667C55.0382 41.6667 62.5001 34.2048 62.5001 25C62.5001 15.7953 55.0382 8.33334 45.8334 8.33334C36.6287 8.33334 29.1667 15.7953 29.1667 25C29.1667 34.2048 36.6287 41.6667 45.8334 41.6667Z" fill="#AF42B1"/>
<path fill-rule="evenodd" clip-rule="evenodd" d="M60.4707 89.5292C62.6041 91.6667 66.0416 91.6667 72.9166 91.6667C79.7916 91.6667 83.2291 91.6667 85.3624 89.5292C87.4999 87.3958 87.4999 83.9583 87.4999 77.0833C87.4999 70.2083 87.4999 66.7708 85.3624 64.6375C83.2291 62.5 79.7916 62.5 72.9166 62.5C66.0416 62.5 62.6041 62.5 60.4707 64.6375C58.3332 66.7708 58.3333 70.2083 58.3333 77.0833C58.3333 83.9583 58.3332 87.3958 60.4707 89.5292ZM68.8624 83.2375C65.9333 81.1417 62.4999 78.6792 62.4999 74.4167C62.4999 69.7083 68.2291 66.3708 72.9166 70.8958C77.6041 66.3667 83.3333 69.7083 83.3333 74.4167C83.3333 78.6792 79.8958 81.1417 76.9707 83.2375L76.0833 83.8792C74.9999 84.6708 73.9583 85.4167 72.9166 85.4167C71.8749 85.4167 70.8333 84.6667 69.7499 83.875L68.8624 83.2375Z" fill="#AF42B1"/>
<path opacity="0.5" d="M60.8083 89.8458C60.6913 89.7452 60.5787 89.6396 60.4708 89.5292C58.3333 87.3958 58.3333 83.9583 58.3333 77.0833C58.3333 70.2083 58.3333 66.7708 60.4708 64.6375C62.6042 62.5 66.0417 62.5 72.9167 62.5H74.7083C68.9458 56.8958 58.1708 53.125 45.8333 53.125C27.425 53.125 12.5 61.5208 12.5 71.875C12.5 82.2292 12.5 90.625 45.8333 90.625C51.8458 90.625 56.7708 90.35 60.8083 89.8458Z" fill="#AF42B1"/>
</svg>
