<svg width="100" height="100" viewBox="0 0 100 100" fill="none" xmlns="http://www.w3.org/2000/svg">
<path d="M84.4582 67.7708L87.3957 50.7708C87.5681 49.7744 87.5207 48.7524 87.2569 47.7763C86.993 46.8001 86.5191 45.8934 85.8682 45.1195C85.2174 44.3456 84.4053 43.7232 83.4888 43.296C82.5723 42.8687 81.5736 42.6468 80.5624 42.6458H58.9707C58.4673 42.6453 57.9699 42.5353 57.5133 42.3234C57.0566 42.1115 56.6515 41.8028 56.326 41.4187C56.0006 41.0346 55.7626 40.5842 55.6285 40.0989C55.4945 39.6137 55.4677 39.105 55.5499 38.6083L58.3124 21.7542C58.7609 19.0177 58.6332 16.2176 57.9374 13.5333C57.6394 12.4237 57.0655 11.4075 56.2693 10.5792C55.473 9.75085 54.4802 9.13738 53.3832 8.79583L52.779 8.6C51.4143 8.16231 49.9339 8.2637 48.6416 8.88333C47.2249 9.56666 46.1916 10.8125 45.8082 12.2917L43.8249 19.9333C43.1934 22.3651 42.2759 24.7134 41.0916 26.9292C39.3582 30.1667 36.6832 32.7625 33.904 35.1583L27.904 40.325C27.0723 41.0438 26.4226 41.9494 26.0083 42.9677C25.5941 43.986 25.427 45.088 25.5207 46.1833L28.9082 85.3208C29.0573 87.051 29.8494 88.6624 31.1283 89.8372C32.4072 91.012 34.08 91.6647 35.8165 91.6667H55.1874C69.6916 91.6667 82.0707 81.5583 84.454 67.7708" fill="#3B82F6"/>
<path opacity="0.5" fill-rule="evenodd" clip-rule="evenodd" d="M12.3667 39.5208C13.172 39.4856 13.9597 39.7629 14.5653 40.2948C15.171 40.8267 15.5477 41.572 15.6167 42.375L19.6584 89.1917C19.7269 89.8888 19.6525 90.5927 19.4398 91.2601C19.2272 91.9276 18.8807 92.5447 18.4215 93.0737C17.9623 93.6028 17.4002 94.0327 16.7693 94.3372C16.1384 94.6417 15.452 94.8144 14.7522 94.8447C14.0523 94.8751 13.3536 94.7624 12.6987 94.5137C12.0439 94.2649 11.4466 93.8853 10.9433 93.398C10.4401 92.9106 10.0415 92.3258 9.77185 91.6793C9.50222 91.0327 9.36721 90.338 9.37508 89.6375V42.6417C9.37542 41.8362 9.68677 41.0619 10.2442 40.4805C10.8016 39.899 11.562 39.5552 12.3667 39.5208Z" fill="#3B82F6"/>
</svg>
